<svg width="32" height="42" viewBox="0 0 32 42" fill="none" xmlns="http://www.w3.org/2000/svg">
<path d="M7.34266 41.958V15.5245C7.34266 11.1189 10.9091 7.34266 15.5245 7.34266C16.5734 7.34266 17.8322 7.55245 18.8811 7.97203C20.7692 8.81119 22.2378 10.2797 23.0769 12.1678C24.1259 14.8951 23.9161 17.8322 22.2378 20.1399C20.7692 22.4476 18.2517 23.7063 15.5245 23.7063C15.3147 23.7063 15.1049 23.7063 14.8951 23.7063H14.2657V19.3007L15.1049 19.5105C15.3147 19.5105 15.5245 19.5105 15.5245 19.5105C16.7832 19.5105 18.042 18.8811 18.6713 17.8322C19.3007 16.7832 19.5105 15.3147 18.8811 14.0559C18.6713 13.4266 18.042 12.7972 17.4126 12.5874C16.7832 12.3776 16.1538 12.1678 15.5245 12.1678C13.4266 12.1678 11.7483 13.8462 11.7483 15.9441V26.4336C13.007 26.8531 14.2657 27.0629 15.5245 27.0629C19.5105 27.0629 23.0769 24.965 25.1748 21.6084C25.8042 20.7692 26.2238 19.7203 26.4336 18.6713C27.4825 14.6853 26.2238 10.6993 23.2867 7.76224C21.1888 5.87413 18.4615 4.61538 15.5245 4.61538C11.5385 4.61538 8.18182 6.5035 6.08392 9.86014C5.03497 11.3287 4.40559 13.4266 4.40559 15.3147V35.2448H0V15.1049C0 8.6014 3.98601 2.93706 10.0699 0.83916C11.958 0.209789 13.6364 0 15.5245 0C19.7203 0 23.4965 1.67832 26.4336 4.61538C29.3706 7.55245 31.049 11.5385 31.049 15.5245C31.049 23.9161 24.3357 30.8392 15.9441 31.049H15.5245C14.2657 31.049 13.007 30.8392 11.7483 30.6294V41.958H7.34266Z" fill="#102A5E"/>
</svg>
