<svg width="20" height="20" viewBox="0 0 20 20" fill="none" xmlns="http://www.w3.org/2000/svg">
<path d="M0.75 9.73411C0.75 8.73119 1.21304 7.78445 2.00469 7.16872L8.00469 2.50205C9.1783 1.58925 10.8217 1.58924 11.9953 2.50205L17.9953 7.16872C18.787 7.78445 19.25 8.73119 19.25 9.73411V17.5C19.25 18.4665 18.4665 19.25 17.5 19.25H14.2778C13.8636 19.25 13.5278 18.9142 13.5278 18.5V13.2222C13.5278 12.2557 12.7443 11.4722 11.7778 11.4722H8.22222C7.25572 11.4722 6.47222 12.2557 6.47222 13.2222V18.5C6.47222 18.9142 6.13644 19.25 5.72222 19.25H2.5C1.5335 19.25 0.75 18.4665 0.75 17.5V9.73411Z" stroke="#445882" stroke-width="1.5"/>
</svg>
