<svg width="36" height="40" viewBox="0 0 36 40" fill="none" xmlns="http://www.w3.org/2000/svg">
<path d="M31.863 10.1231C31.8387 7.43255 30.7539 4.86021 28.8441 2.96482C26.9343 1.06943 24.3538 0.00406994 21.6631 0.000127521H6.81707C6.44832 -0.00461855 6.09013 0.123254 5.80775 0.360452C5.52537 0.59765 5.33759 0.928389 5.27862 1.29243L0.0171182 34.2922C-0.0157556 34.5107 -0.00116626 34.7338 0.0598931 34.9461C0.120953 35.1585 0.227049 35.3552 0.370962 35.5229C0.513945 35.6946 0.692608 35.8331 0.894525 35.9287C1.09644 36.0244 1.31677 36.0749 1.54018 36.0768H7.89398L7.55552 38.2152C7.51958 38.4369 7.53259 38.6637 7.59363 38.8798C7.65468 39.0959 7.76229 39.296 7.9089 39.466C8.05551 39.6361 8.23757 39.772 8.4423 39.8642C8.64702 39.9564 8.86946 40.0027 9.09398 39.9998H16.2478C16.6143 40.0052 16.9706 39.8795 17.2527 39.6454C17.5347 39.4113 17.7239 39.0841 17.7862 38.7229L19.3247 29.323H24.1708C27.204 29.3108 30.109 28.0984 32.2509 25.9507C34.3928 23.803 35.5974 20.8947 35.6015 17.8615V17.4308C35.5999 16.004 35.2603 14.5979 34.6105 13.3277C33.9607 12.0574 33.0191 10.9593 31.863 10.1231ZM8.12475 3.07703H21.6631C23.2772 3.08198 24.8419 3.6338 26.102 4.64245C27.3622 5.6511 28.2432 7.05702 28.6015 8.63083C27.936 8.47474 27.2544 8.39729 26.5708 8.40007H13.7401C13.3713 8.39532 13.0132 8.52319 12.7308 8.76039C12.4484 8.99759 12.2606 9.32833 12.2016 9.69237L11.294 15.3846C11.2287 15.7927 11.3282 16.2099 11.5705 16.5446C11.8129 16.8793 12.1782 17.104 12.5863 17.1692C12.9943 17.2345 13.4115 17.135 13.7462 16.8927C14.0809 16.6503 14.3056 16.285 14.3709 15.8769L15.0785 11.4462H26.6015C27.339 11.4501 28.0694 11.5909 28.7554 11.8616C28.4629 14.2699 27.3009 16.4886 25.4878 18.1006C23.6747 19.7125 21.3353 20.6068 18.9093 20.6154H11.7709C11.4044 20.61 11.048 20.7357 10.766 20.9698C10.4839 21.2039 10.2947 21.5311 10.2324 21.8923L8.35552 32.9999H3.34017L8.12475 3.07703ZM32.5246 17.8615C32.5205 20.0787 31.6401 22.2043 30.0752 23.775C28.5103 25.3457 26.3879 26.2339 24.1708 26.2461H18.017C17.6505 26.2408 17.2941 26.3665 17.0121 26.6006C16.73 26.8347 16.5408 27.1618 16.4785 27.523L14.9401 36.9229H10.8786L11.217 34.7845L13.0632 23.723H18.8785C21.7506 23.7146 24.5392 22.7564 26.8099 20.9977C29.0806 19.2391 30.7058 16.7787 31.4323 14C32.1463 15.0012 32.5284 16.2011 32.5246 17.4308V17.8615Z" fill="#1C85E8"/>
</svg>
