<svg width="21" height="21" viewBox="0 0 21 21" fill="none" xmlns="http://www.w3.org/2000/svg">
<g clip-path="url(#clip0)">
<path fill-rule="evenodd" clip-rule="evenodd" d="M19.7468 5.90481L19.0932 4.77071C18.5403 3.81109 17.315 3.48005 16.3541 4.03066V4.03066C15.8967 4.30012 15.3509 4.37657 14.837 4.24315C14.3232 4.10973 13.8835 3.77741 13.615 3.31945C13.4422 3.02837 13.3494 2.69683 13.3459 2.35835V2.35835C13.3615 1.81569 13.1567 1.28983 12.7783 0.900565C12.3999 0.511296 11.8801 0.291769 11.3372 0.291992H10.0205C9.48861 0.291986 8.97867 0.503922 8.60349 0.880905C8.22831 1.25789 8.01883 1.76883 8.02138 2.30069V2.30069C8.00562 3.39878 7.1109 4.28066 6.01269 4.28055C5.67422 4.27704 5.34267 4.1842 5.05159 4.01144V4.01144C4.09066 3.46083 2.86536 3.79187 2.31246 4.75149L1.61086 5.90481C1.05862 6.86323 1.38516 8.08775 2.34129 8.64394V8.64394C2.96279 9.00275 3.34565 9.66588 3.34565 10.3835C3.34565 11.1012 2.96279 11.7643 2.34129 12.1231V12.1231C1.38638 12.6755 1.05948 13.8971 1.61086 14.8526V14.8526L2.27401 15.9963C2.53307 16.4638 2.96773 16.8087 3.4818 16.9548C3.99586 17.1009 4.54696 17.0362 5.01314 16.7748V16.7748C5.47143 16.5074 6.01754 16.4342 6.5301 16.5713C7.04266 16.7085 7.47919 17.0447 7.74266 17.5053C7.91543 17.7963 8.00826 18.1279 8.01177 18.4664V18.4664C8.01177 19.5757 8.9111 20.4751 10.0205 20.4751H11.3372C12.4428 20.4751 13.3406 19.5816 13.3459 18.476V18.476C13.3433 17.9425 13.5541 17.43 13.9314 17.0528C14.3086 16.6755 14.821 16.4647 15.3546 16.4673C15.6922 16.4763 16.0224 16.5688 16.3157 16.7364V16.7364C17.2741 17.2886 18.4986 16.9621 19.0548 16.006V16.006L19.7468 14.8526C20.0146 14.3929 20.0882 13.8453 19.9511 13.3312C19.814 12.8171 19.4776 12.3788 19.0163 12.1135V12.1135C18.5551 11.8482 18.2187 11.4099 18.0816 10.8958C17.9445 10.3817 18.0181 9.83412 18.2859 9.37437C18.4601 9.07026 18.7122 8.81812 19.0163 8.64394V8.64394C19.9667 8.08805 20.2925 6.87068 19.7468 5.91442V5.91442V5.90481Z" stroke="#445882" stroke-width="1.5" stroke-linecap="round" stroke-linejoin="round"/>
<path fill-rule="evenodd" clip-rule="evenodd" d="M10.6835 13.1512C12.2122 13.1512 13.4515 11.9119 13.4515 10.3832C13.4515 8.85449 12.2122 7.61523 10.6835 7.61523C9.15479 7.61523 7.91553 8.85449 7.91553 10.3832C7.91553 11.9119 9.15479 13.1512 10.6835 13.1512Z" stroke="#445882" stroke-width="1.5" stroke-linecap="round" stroke-linejoin="round"/>
</g>
<defs>
<clipPath id="clip0">
<rect width="21" height="21" fill="white"/>
</clipPath>
</defs>
</svg>
