<svg width="13" height="14" viewBox="0 0 13 14" fill="none" xmlns="http://www.w3.org/2000/svg">
<path fill-rule="evenodd" clip-rule="evenodd" d="M11.9425 4.33714L11.554 3.66286C11.2252 3.09231 10.4967 2.89548 9.9254 3.22286V3.22286C9.65344 3.38307 9.32892 3.42852 9.02341 3.34919C8.7179 3.26987 8.45649 3.07228 8.29682 2.8C8.19411 2.62693 8.13891 2.42981 8.13682 2.22857V2.22857C8.14609 1.90593 8.02437 1.59327 7.79938 1.36183C7.5744 1.13039 7.26531 0.999867 6.94254 1H6.15968C5.84346 0.999996 5.54027 1.126 5.31721 1.35014C5.09414 1.57428 4.96959 1.87807 4.97111 2.19429V2.19429C4.96174 2.84717 4.42977 3.3715 3.77682 3.37143C3.57558 3.36934 3.37846 3.31414 3.2054 3.21143V3.21143C2.63407 2.88406 1.90556 3.08088 1.57682 3.65143L1.15968 4.33714C0.831347 4.90698 1.02549 5.63503 1.59397 5.96571V5.96571C1.96348 6.17905 2.19112 6.57332 2.19112 7C2.19112 7.42668 1.96348 7.82095 1.59397 8.03429V8.03429C1.02622 8.36274 0.831857 9.08903 1.15968 9.65714V9.65714L1.55397 10.3371C1.70799 10.6151 1.96642 10.8202 2.27206 10.907C2.57771 10.9939 2.90537 10.9554 3.18254 10.8V10.8C3.45501 10.641 3.77971 10.5974 4.08446 10.679C4.3892 10.7606 4.64874 10.9605 4.8054 11.2343C4.90811 11.4074 4.96331 11.6045 4.9654 11.8057V11.8057C4.9654 12.4653 5.5001 13 6.15968 13H6.94254C7.5999 13 8.13368 12.4688 8.13682 11.8114V11.8114C8.1353 11.4942 8.26063 11.1896 8.48494 10.9653C8.70924 10.7409 9.0139 10.6156 9.33111 10.6171C9.53187 10.6225 9.72818 10.6775 9.90254 10.7771V10.7771C10.4724 11.1055 11.2004 10.9113 11.5311 10.3429V10.3429L11.9425 9.65714C12.1018 9.3838 12.1455 9.05824 12.064 8.75257C11.9825 8.44689 11.7825 8.18633 11.5083 8.02857V8.02857C11.234 7.87081 11.034 7.61025 10.9525 7.30458C10.871 6.9989 10.9147 6.67335 11.074 6.4C11.1775 6.21919 11.3274 6.06928 11.5083 5.96571V5.96571C12.0733 5.63521 12.267 4.91141 11.9425 4.34286V4.34286V4.33714Z" stroke="#8A93A6" stroke-width="1.5" stroke-linecap="round" stroke-linejoin="round"/>
<path fill-rule="evenodd" clip-rule="evenodd" d="M6.55392 8.64494C7.46282 8.64494 8.19963 7.90813 8.19963 6.99923C8.19963 6.09033 7.46282 5.35352 6.55392 5.35352C5.64501 5.35352 4.9082 6.09033 4.9082 6.99923C4.9082 7.90813 5.64501 8.64494 6.55392 8.64494Z" stroke="#8A93A6" stroke-width="1.5" stroke-linecap="round" stroke-linejoin="round"/>
</svg>
