<svg width="13" height="14" viewBox="0 0 13 14" fill="none" xmlns="http://www.w3.org/2000/svg">
<path d="M1.76807 3.55078H10.45V11.0009C10.45 12.2436 9.44267 13.2509 8.20003 13.2509H4.01807C2.77543 13.2509 1.76807 12.2436 1.76807 11.0009V3.55078Z" stroke="#8A93A6" stroke-width="1.5"/>
<path fill-rule="evenodd" clip-rule="evenodd" d="M0 3.56443C0 3.14268 0.341896 2.80078 0.763647 2.80078H11.4547C11.8765 2.80078 12.2184 3.14268 12.2184 3.56443C12.2184 3.98618 11.8765 4.32808 11.4547 4.32808H0.763647C0.341896 4.32808 0 3.98618 0 3.56443Z" fill="#8A93A6"/>
<path fill-rule="evenodd" clip-rule="evenodd" d="M3.30908 1.78184C3.30908 0.797758 4.10684 0 5.09092 0H7.12732C8.1114 0 8.90916 0.797758 8.90916 1.78184V2.80004H7.38187V1.78184C7.38187 1.64126 7.2679 1.52729 7.12732 1.52729H5.09092C4.95034 1.52729 4.83638 1.64126 4.83638 1.78184V2.80004H3.30908V1.78184Z" fill="#8A93A6"/>
<path d="M5.09082 6.87305C5.09082 6.87305 5.09082 8.73474 5.09082 9.92763M7.12721 6.87305V9.92763" stroke="#8A93A6" stroke-width="1.5" stroke-linecap="round" stroke-linejoin="round"/>
</svg>
