<svg width="57" height="60" viewBox="0 0 57 60" fill="none" xmlns="http://www.w3.org/2000/svg">
<path d="M15.4492 9.83752C15.8635 9.94273 16.3237 9.86382 16.9418 9.86382C16.9418 10.671 16.9484 11.2956 16.9402 11.922C16.9336 12.4579 17.0536 12.9428 17.6865 12.9412C18.2454 12.9412 18.4181 12.4891 18.4213 12.0025C18.4312 9.8441 18.4296 7.68568 18.4213 5.52727C18.4197 5.04068 18.2422 4.58039 17.6947 4.58204C17.0849 4.58368 16.932 5.05219 16.9402 5.60124C16.9534 6.48565 16.9435 7.3717 16.9435 8.32186C16.3501 8.35474 15.8733 8.35803 15.4015 8.41557C14.9462 8.46981 14.5615 8.73119 14.7062 9.21449C14.7851 9.4808 15.1566 9.76355 15.4492 9.83752Z" fill="#1C85E8"/>
<path d="M12.3801 23.999H10.1099C9.74659 23.999 9.45233 24.2933 9.45233 24.6566V28.4375C9.45233 28.8008 9.74659 29.0951 10.1099 29.0951H12.3801C12.7434 29.0951 13.0376 28.8008 13.0376 28.4375V24.6566C13.0376 24.2933 12.7434 23.999 12.3801 23.999ZM12.3801 28.4375H10.1099V24.6566H12.3801V28.4375Z" fill="#1C85E8"/>
<path d="M18.5183 23.999H16.2481C15.8848 23.999 15.5906 24.2933 15.5906 24.6566V28.4375C15.5906 28.8008 15.8848 29.0951 16.2481 29.0951H18.5183C18.8816 29.0951 19.1759 28.8008 19.1759 28.4375V24.6566C19.1759 24.2933 18.8816 23.999 18.5183 23.999ZM18.5183 28.4375H16.2481V24.6566H18.5183V28.4375Z" fill="#1C85E8"/>
<path d="M22.3847 29.0951H24.6549C25.0182 29.0951 25.3125 28.8008 25.3125 28.4375V24.6566C25.3125 24.2933 25.0182 23.999 24.6549 23.999H22.3847C22.0214 23.999 21.7272 24.2933 21.7272 24.6566V28.4375C21.7272 28.8008 22.0214 29.0951 22.3847 29.0951ZM22.3847 24.6566H24.6549V28.4375H22.3847V24.6566Z" fill="#1C85E8"/>
<path d="M28.523 29.0951H30.7932C31.1565 29.0951 31.4507 28.8008 31.4507 28.4375V24.6566C31.4507 24.2933 31.1565 23.999 30.7932 23.999H28.523C28.1597 23.999 27.8654 24.2933 27.8654 24.6566V28.4375C27.8654 28.8008 28.1597 29.0951 28.523 29.0951ZM28.523 24.6566H30.7932V28.4375H28.523V24.6566Z" fill="#1C85E8"/>
<path d="M12.2157 31.6484H9.94546C9.58216 31.6484 9.2879 31.9427 9.2879 32.306V36.0869C9.2879 36.4502 9.58216 36.7445 9.94546 36.7445H12.2157C12.579 36.7445 12.8732 36.4502 12.8732 36.0869V32.306C12.8732 31.9427 12.579 31.6484 12.2157 31.6484ZM12.2157 36.0869H9.94546V32.306H12.2157V36.0869Z" fill="#1C85E8"/>
<path d="M18.354 31.6484H16.0838C15.7205 31.6484 15.4262 31.9427 15.4262 32.306V36.0869C15.4262 36.4502 15.7205 36.7445 16.0838 36.7445H18.354C18.7173 36.7445 19.0115 36.4502 19.0115 36.0869V32.306C19.0115 31.9427 18.7173 31.6484 18.354 31.6484ZM18.354 36.0869H16.0838V32.306H18.354V36.0869Z" fill="#1C85E8"/>
<path d="M24.4922 31.6484H22.222C21.8587 31.6484 21.5645 31.9427 21.5645 32.306V36.0869C21.5645 36.4502 21.8587 36.7445 22.222 36.7445H24.4922C24.8555 36.7445 25.1498 36.4502 25.1498 36.0869V32.306C25.1498 31.9427 24.8539 31.6484 24.4922 31.6484ZM24.4922 36.0869H22.222V32.306H24.4922V36.0869Z" fill="#1C85E8"/>
<path d="M28.3586 36.7445H30.6288C30.9921 36.7445 31.2864 36.4502 31.2864 36.0869V32.306C31.2864 31.9427 30.9921 31.6484 30.6288 31.6484H28.3586C27.9953 31.6484 27.701 31.9427 27.701 32.306V36.0869C27.701 36.4502 27.9953 36.7445 28.3586 36.7445ZM28.3586 32.306H30.6288V36.0869H28.3586V32.306Z" fill="#1C85E8"/>
<path d="M12.2157 39.2988H9.94546C9.58216 39.2988 9.2879 39.5931 9.2879 39.9564V43.7373C9.2879 44.1006 9.58216 44.3949 9.94546 44.3949H12.2157C12.579 44.3949 12.8732 44.1006 12.8732 43.7373V39.9564C12.8732 39.5931 12.579 39.2988 12.2157 39.2988ZM12.2157 43.7373H9.94546V39.9564H12.2157V43.7373Z" fill="#1C85E8"/>
<path d="M18.354 39.2988H16.0838C15.7205 39.2988 15.4262 39.5931 15.4262 39.9564V43.7373C15.4262 44.1006 15.7205 44.3949 16.0838 44.3949H18.354C18.7173 44.3949 19.0115 44.1006 19.0115 43.7373V39.9564C19.0115 39.5931 18.7173 39.2988 18.354 39.2988ZM18.354 43.7373H16.0838V39.9564H18.354V43.7373Z" fill="#1C85E8"/>
<path d="M24.4922 39.2988H22.222C21.8587 39.2988 21.5645 39.5931 21.5645 39.9564V43.7373C21.5645 44.1006 21.8587 44.3949 22.222 44.3949H24.4922C24.8555 44.3949 25.1498 44.1006 25.1498 43.7373V39.9564C25.1498 39.5931 24.8539 39.2988 24.4922 39.2988ZM24.4922 43.7373H22.222V39.9564H24.4922V43.7373Z" fill="#1C85E8"/>
<path d="M28.3586 44.3949H30.6288C30.9921 44.3949 31.2864 44.1006 31.2864 43.7373V39.9564C31.2864 39.5931 30.9921 39.2988 30.6288 39.2988H28.3586C27.9953 39.2988 27.701 39.5931 27.701 39.9564V43.7373C27.701 44.099 27.9953 44.3949 28.3586 44.3949ZM28.3586 39.9564H30.6288V43.7373H28.3586V39.9564Z" fill="#1C85E8"/>
<path d="M39.2066 44.3079H41.4768C41.8401 44.3079 42.1343 44.0137 42.1343 43.6504V39.8695C42.1343 39.5062 41.8401 39.2119 41.4768 39.2119H39.2066C38.8433 39.2119 38.549 39.5062 38.549 39.8695V43.6504C38.549 44.0137 38.8433 44.3079 39.2066 44.3079ZM39.2066 39.8695H41.4768V43.6504H39.2066V39.8695Z" fill="#1C85E8"/>
<path d="M45.3432 44.3079H47.6134C47.9767 44.3079 48.2709 44.0137 48.2709 43.6504V39.8695C48.2709 39.5062 47.9767 39.2119 47.6134 39.2119H45.3432C44.9799 39.2119 44.6856 39.5062 44.6856 39.8695V43.6504C44.6856 44.0137 44.9799 44.3079 45.3432 44.3079ZM45.3432 39.8695H47.6134V43.6504H45.3432V39.8695Z" fill="#1C85E8"/>
<path d="M39.2066 52.0433H41.4768C41.8401 52.0433 42.1343 51.749 42.1343 51.3857V47.6048C42.1343 47.2415 41.8401 46.9473 41.4768 46.9473H39.2066C38.8433 46.9473 38.549 47.2415 38.549 47.6048V51.3857C38.549 51.749 38.8433 52.0433 39.2066 52.0433ZM39.2066 47.6048H41.4768V51.3857H39.2066V47.6048Z" fill="#1C85E8"/>
<path d="M45.3432 52.0433H47.6134C47.9767 52.0433 48.2709 51.749 48.2709 51.3857V47.6048C48.2709 47.2415 47.9767 46.9473 47.6134 46.9473H45.3432C44.9799 46.9473 44.6856 47.2415 44.6856 47.6048V51.3857C44.6856 51.749 44.9799 52.0433 45.3432 52.0433ZM45.3432 47.6048H47.6134V51.3857H45.3432V47.6048Z" fill="#1C85E8"/>
<path d="M24.4922 46.9473H22.222C21.8587 46.9473 21.5645 47.2415 21.5645 47.6048V51.3857C21.5645 51.749 21.8587 52.0433 22.222 52.0433H24.4922C24.8555 52.0433 25.1498 51.749 25.1498 51.3857V47.6048C25.1498 47.2415 24.8539 46.9473 24.4922 46.9473ZM24.4922 51.3857H22.222V47.6048H24.4922V51.3857Z" fill="#1C85E8"/>
<path d="M28.3586 52.0433H30.6288C30.9921 52.0433 31.2864 51.749 31.2864 51.3857V47.6048C31.2864 47.2415 30.9921 46.9473 30.6288 46.9473H28.3586C27.9953 46.9473 27.701 47.2415 27.701 47.6048V51.3857C27.701 51.749 27.9953 52.0433 28.3586 52.0433ZM28.3586 47.6048H30.6288V51.3857H28.3586V47.6048Z" fill="#1C85E8"/>
<path d="M54.9796 58.4331C54.1018 58.4348 53.2223 58.4331 52.3067 58.4331C52.3067 51.1886 52.3067 44.1117 52.3067 36.9394C52.568 36.8786 52.7472 36.8342 52.9264 36.7948C54.4832 36.4627 55.4152 35.4057 55.3446 34.0511C55.2722 32.6571 54.2727 31.6593 52.7045 31.5409C52.0995 31.4949 51.7806 31.2417 51.4913 30.7486C50.3817 28.8515 49.1866 27.0022 48.1279 25.0772C47.5953 24.1089 46.9739 23.7078 45.8396 23.7473C43.2702 23.836 40.6959 23.7785 38.1233 23.7719C37.7287 23.7719 37.3358 23.7341 36.938 23.7144C36.938 22.9072 36.938 22.2217 36.938 21.5297C37.1583 21.4869 37.303 21.4606 37.4476 21.431C39.0849 21.0924 40.0203 20.0452 39.9463 18.6364C39.8806 17.3739 38.7759 16.0227 37.1895 16.1229C36.578 16.1608 36.3561 15.7695 36.1013 15.3405C34.9012 13.3234 33.6667 11.3261 32.493 9.29427C32.1099 8.63179 31.648 8.36055 30.882 8.36712C27.7142 8.39835 24.5448 8.37698 21.3754 8.3852C21.0811 8.3852 20.7425 8.37534 20.5074 8.51178C20.297 8.63507 20.0751 8.9622 20.0882 9.18577C20.1014 9.4077 20.3595 9.70195 20.583 9.80552C20.8346 9.92059 21.1666 9.86798 21.4642 9.86798C24.2604 9.87127 27.0567 9.90086 29.8512 9.85154C30.7274 9.83511 31.2896 10.0537 31.7203 10.8708C32.4321 12.2204 33.2722 13.501 34.0514 14.8144C34.2684 15.181 34.4656 15.5591 34.7171 16.0145C24.8111 16.0145 15.0859 16.0145 5.18646 16.0145C6.40129 13.9892 7.52077 12.1069 8.66162 10.2395C8.7619 10.0751 9.00191 9.90579 9.18438 9.89757C9.94714 9.85976 10.7132 9.88113 11.5614 9.88113C11.5614 10.6949 11.568 11.3245 11.5598 11.9524C11.5532 12.4423 11.6568 12.8993 12.2239 12.9355C12.87 12.9766 13.0245 12.4801 13.0261 11.9574C13.0343 8.30301 13.036 4.64866 13.0261 0.992672C13.0278 0.491288 12.9259 -0.0232464 12.2535 -0.000232077C11.5713 0.0244261 11.5631 0.553756 11.5631 1.05678C11.5614 3.07054 11.5614 5.08429 11.5614 7.09804C11.5614 7.49422 11.5614 7.88875 11.5614 8.38356C10.728 8.38356 10.0556 8.43452 9.3948 8.37205C8.42162 8.27835 7.81667 8.63507 7.32844 9.50633C6.22211 11.4888 4.99741 13.4073 3.84999 15.3701C3.56066 15.8632 3.24668 16.1131 2.63516 16.1443C1.08005 16.2249 -0.0049149 17.3608 1.67435e-05 18.7745C0.00494839 20.1883 1.09977 21.2946 2.64502 21.4425C3.00503 21.4771 3.36668 21.4935 3.75628 21.5215C3.75628 33.8391 3.75628 46.0827 3.75628 58.4364C2.75352 58.4364 1.82966 58.4348 0.905795 58.4364C0.383041 58.4381 0.0838547 58.683 0.0493332 59.2123C0.0822108 59.671 0.246599 59.9998 0.904151 59.9998C18.4263 59.9998 36.8131 59.9422 54.3336 59.9422C54.5571 59.9422 54.7807 59.9439 55.0043 59.9406C55.5155 59.9324 56.0383 59.865 56.0646 59.2206C56.0942 58.4874 55.5369 58.4315 54.9796 58.4331ZM37.7156 25.2909C40.354 25.2859 42.9941 25.309 45.6309 25.2728C46.2753 25.2646 46.6386 25.475 46.9558 26.0306C47.9652 27.7929 49.0304 29.5239 50.1581 31.4078C45.6325 31.4078 41.2861 31.4078 36.9183 31.4078C36.9183 29.2789 36.9183 27.3556 36.9183 25.3632C37.2191 25.3353 37.4673 25.2909 37.7156 25.2909ZM9.91097 58.3904C8.36901 58.3904 6.92897 58.3904 5.40181 58.3904C5.40181 57.3761 5.40181 56.403 5.40181 55.3574C6.91254 55.3574 8.37723 55.3574 9.91097 55.3574C9.91097 56.3832 9.91097 57.3827 9.91097 58.3904ZM16.904 58.369C15.0859 58.369 13.3582 58.369 11.5055 58.369C11.5055 57.4271 11.5039 56.5443 11.5055 55.6599C11.5088 54.0966 11.4759 52.53 11.5318 50.9683C11.5828 49.5134 12.6924 48.44 14.0979 48.3726C15.4673 48.3068 16.8103 49.3178 16.8728 50.7447C16.9846 53.2615 16.904 55.7865 16.904 58.369ZM18.5052 58.3575C18.5052 57.9581 18.497 56.712 18.4739 55.3065C19.0871 55.3065 19.7019 55.3065 20.3151 55.3065C20.5091 55.3065 20.6932 55.1372 20.685 54.9366C20.6767 54.7361 20.5222 54.5667 20.3151 54.5667C19.697 54.5667 19.0789 54.5667 18.4608 54.5667C18.4263 52.7141 18.3687 50.7924 18.28 50.2581C17.9298 48.1688 15.9884 46.7402 13.9138 46.9145C11.785 47.092 10.1247 48.7392 10.0293 50.8351C9.97509 52.0237 10.0195 53.2155 10.0195 54.5043C8.44792 54.5043 6.95199 54.5043 5.38373 54.5043C5.38373 43.5199 5.38373 32.5782 5.38373 21.5034C15.3802 21.5034 25.2829 21.5034 35.2876 21.5034C35.2876 30.0499 35.3073 46.9506 35.3155 54.5404C32.8267 54.5404 30.3362 54.5404 27.8474 54.5404C27.0714 54.5404 26.2955 54.5404 25.5196 54.5404C25.0429 54.5404 25.0429 55.2802 25.5196 55.2802C28.255 55.2802 30.9905 55.2802 33.7259 55.2802C34.2568 55.2802 34.7862 55.2802 35.3172 55.2802C35.3188 57.0326 35.3204 58.1553 35.3204 58.3575C29.7164 58.3575 24.1486 58.3575 18.5052 58.3575ZM19.9534 19.9466C14.476 19.9466 9.00026 19.9466 3.52285 19.9466C3.22531 19.9466 2.92448 19.9663 2.62858 19.9335C1.94473 19.8578 1.51403 19.4715 1.5091 18.7745C1.50417 18.0742 1.91678 17.6813 2.61707 17.6238C2.91297 17.5992 3.21216 17.6074 3.51135 17.6074C14.5023 17.6074 25.4933 17.6074 36.4843 17.6074C36.7818 17.6074 37.081 17.6024 37.3769 17.6304C38.0263 17.6912 38.4076 18.0578 38.4339 18.7104C38.4635 19.4173 38.069 19.8217 37.3868 19.9252C37.0942 19.9696 36.7917 19.945 36.4942 19.945C30.9822 19.9466 25.467 19.9466 19.9534 19.9466ZM50.6743 54.5996C50.025 54.5996 49.3756 54.5996 48.7263 54.5996C48.5323 54.5996 48.3482 54.7689 48.3564 54.9695C48.3646 55.17 48.5192 55.3394 48.7263 55.3394C49.3756 55.3394 50.025 55.3394 50.6743 55.3394C50.6726 56.9685 50.671 58.0945 50.671 58.3608C46.1125 58.3608 41.559 58.3608 36.915 58.3608C36.915 51.1639 36.915 44.1002 36.915 36.9427C41.5179 36.9427 46.0681 36.9427 50.6957 36.9427C50.6924 41.0968 50.6809 49.6302 50.6743 54.5996ZM37.5726 35.3531C37.3917 35.3531 37.2125 35.3136 36.9084 35.2774C36.9084 34.5147 36.9084 33.8538 36.9084 33.0533C37.3128 33.0237 37.7024 32.9711 38.092 32.9711C42.7048 32.9662 47.3175 32.9661 51.9302 32.9694C52.2277 32.9694 52.5286 32.9629 52.8195 33.0122C53.4459 33.1174 53.8322 33.4988 53.8437 34.1432C53.8552 34.7909 53.4656 35.1673 52.859 35.3202C52.6815 35.3646 52.4891 35.358 52.3034 35.358C47.3931 35.358 42.4828 35.358 37.5726 35.3531Z" fill="#1C85E8"/>
<path d="M24.0517 54.541C23.2955 54.541 22.5393 54.541 21.7831 54.541C21.5891 54.541 21.405 54.7103 21.4132 54.9109C21.4214 55.1114 21.576 55.2808 21.7831 55.2808C21.9902 55.2808 22.1957 55.2808 22.4028 55.2808C22.5524 55.3054 22.7119 55.3054 22.8812 55.2808C23.2708 55.2808 23.6604 55.2808 24.0517 55.2808C24.2456 55.2808 24.4297 55.1114 24.4215 54.9109C24.4117 54.7103 24.2588 54.541 24.0517 54.541Z" fill="#1C85E8"/>
<path d="M37.9145 55.3101C39.8691 55.3101 41.822 55.3101 43.7766 55.3101C44.2533 55.3101 44.2533 54.5703 43.7766 54.5703C41.822 54.5703 39.8691 54.5703 37.9145 54.5703C37.4394 54.5703 37.4378 55.3101 37.9145 55.3101Z" fill="#1C85E8"/>
<path d="M47.3717 54.5703C46.7339 54.5703 46.0944 54.5703 45.4566 54.5703C45.2626 54.5703 45.0785 54.7396 45.0868 54.9402C45.095 55.1407 45.2495 55.3101 45.4566 55.3101C46.0944 55.3101 46.7339 55.3101 47.3717 55.3101C47.5657 55.3101 47.7498 55.1407 47.7416 54.9402C47.7318 54.7396 47.5789 54.5703 47.3717 54.5703Z" fill="#1C85E8"/>
</svg>
