<svg width="60" height="60" viewBox="0 0 60 60" fill="none" xmlns="http://www.w3.org/2000/svg">
<path d="M16.2536 9.96161C16.6851 9.96981 17.1181 9.96325 17.6447 9.96325C17.6447 10.7326 17.6496 11.3576 17.643 11.9809C17.6365 12.5124 17.7562 12.9996 18.3763 13.0225C19.062 13.0472 19.2162 12.537 19.2162 11.9612C19.2178 9.88287 19.2129 7.80452 19.2194 5.72616C19.2211 5.15531 19.0931 4.60742 18.437 4.59594C17.7726 4.58282 17.6316 5.11594 17.6398 5.69663C17.6529 6.54307 17.643 7.39114 17.643 8.39341C17.0755 8.39341 16.667 8.37045 16.2635 8.39997C15.7796 8.43442 15.376 8.62306 15.3711 9.18899C15.3678 9.75984 15.7484 9.95177 16.2536 9.96161Z" fill="#1C85E8"/>
<path d="M30.6693 23.8291H28.4039C28.0414 23.8291 27.7477 24.1227 27.7477 24.4853V28.2581C27.7477 28.6206 28.0414 28.9143 28.4039 28.9143H30.6693C31.0318 28.9143 31.3254 28.6206 31.3254 28.2581V24.4853C31.3254 24.1227 31.0301 23.8291 30.6693 23.8291ZM30.6693 28.2581H28.4039V24.4853H30.6693V28.2581Z" fill="#1C85E8"/>
<path d="M36.7928 23.8291H34.5274C34.1649 23.8291 33.8713 24.1227 33.8713 24.4853V28.2581C33.8713 28.6206 34.1649 28.9143 34.5274 28.9143H36.7928C37.1553 28.9143 37.4489 28.6206 37.4489 28.2581V24.4853C37.4489 24.1227 37.1553 23.8291 36.7928 23.8291ZM36.7928 28.2581H34.5274V24.4853H36.7928V28.2581Z" fill="#1C85E8"/>
<path d="M40.6526 28.9143H42.918C43.2805 28.9143 43.5741 28.6206 43.5741 28.2581V24.4853C43.5741 24.1227 43.2805 23.8291 42.918 23.8291H40.6526C40.2901 23.8291 39.9965 24.1227 39.9965 24.4853V28.2581C39.9965 28.6206 40.2901 28.9143 40.6526 28.9143ZM40.6526 24.4853H42.918V28.2581H40.6526V24.4853Z" fill="#1C85E8"/>
<path d="M12.133 23.8291H9.86605C9.50353 23.8291 9.2099 24.1227 9.2099 24.4853V28.2581C9.2099 28.6206 9.50353 28.9143 9.86605 28.9143H12.1314C12.4939 28.9143 12.7876 28.6206 12.7876 28.2581V24.4853C12.7892 24.1227 12.4939 23.8291 12.133 23.8291ZM12.133 28.2581H9.86605V24.4853H12.1314V28.2581H12.133Z" fill="#1C85E8"/>
<path d="M18.2565 23.8291H15.9912C15.6286 23.8291 15.335 24.1227 15.335 24.4853V28.2581C15.335 28.6206 15.6286 28.9143 15.9912 28.9143H18.2565C18.6191 28.9143 18.9127 28.6206 18.9127 28.2581V24.4853C18.9127 24.1227 18.6191 23.8291 18.2565 23.8291ZM18.2565 28.2581H15.9912V24.4853H18.2565V28.2581Z" fill="#1C85E8"/>
<path d="M24.3817 23.8291H22.1164C21.7538 23.8291 21.4602 24.1227 21.4602 24.4853V28.2581C21.4602 28.6206 21.7538 28.9143 22.1164 28.9143H24.3817C24.7442 28.9143 25.0379 28.6206 25.0379 28.2581V24.4853C25.0379 24.1227 24.7442 23.8291 24.3817 23.8291ZM24.3817 28.2581H22.1164V24.4853H24.3817V28.2581Z" fill="#1C85E8"/>
<path d="M12.133 31.4619H9.86605C9.50353 31.4619 9.2099 31.7555 9.2099 32.1181V35.8909C9.2099 36.2535 9.50353 36.5471 9.86605 36.5471H12.1314C12.4939 36.5471 12.7876 36.2535 12.7876 35.8909V32.1181C12.7892 31.7555 12.4939 31.4619 12.133 31.4619ZM12.133 35.8909H9.86605V32.1181H12.1314V35.8909H12.133Z" fill="#1C85E8"/>
<path d="M18.2565 31.4619H15.9912C15.6286 31.4619 15.335 31.7555 15.335 32.1181V35.8909C15.335 36.2535 15.6286 36.5471 15.9912 36.5471H18.2565C18.6191 36.5471 18.9127 36.2535 18.9127 35.8909V32.1181C18.9127 31.7555 18.6191 31.4619 18.2565 31.4619ZM18.2565 35.8909H15.9912V32.1181H18.2565V35.8909Z" fill="#1C85E8"/>
<path d="M24.3817 31.4619H22.1164C21.7538 31.4619 21.4602 31.7555 21.4602 32.1181V35.8909C21.4602 36.2535 21.7538 36.5471 22.1164 36.5471H24.3817C24.7442 36.5471 25.0379 36.2535 25.0379 35.8909V32.1181C25.0379 31.7555 24.7442 31.4619 24.3817 31.4619ZM24.3817 35.8909H22.1164V32.1181H24.3817V35.8909Z" fill="#1C85E8"/>
<path d="M12.133 39.0947H9.86605C9.50353 39.0947 9.2099 39.3884 9.2099 39.7509V43.5237C9.2099 43.8863 9.50353 44.1799 9.86605 44.1799H12.1314C12.4939 44.1799 12.7876 43.8863 12.7876 43.5237V39.7509C12.7892 39.39 12.4939 39.0947 12.133 39.0947ZM12.133 43.5237H9.86605V39.7509H12.1314V43.5237H12.133Z" fill="#1C85E8"/>
<path d="M12.133 46.7285H9.86605C9.50353 46.7285 9.2099 47.0221 9.2099 47.3847V51.1575C9.2099 51.5201 9.50353 51.8137 9.86605 51.8137H12.1314C12.4939 51.8137 12.7876 51.5201 12.7876 51.1575V47.3847C12.7892 47.0221 12.4939 46.7285 12.133 46.7285ZM12.133 51.1575H9.86605V47.3847H12.1314V51.1575H12.133Z" fill="#1C85E8"/>
<path d="M18.2565 39.0947H15.9912C15.6286 39.0947 15.335 39.3884 15.335 39.7509V43.5237C15.335 43.8863 15.6286 44.1799 15.9912 44.1799H18.2565C18.6191 44.1799 18.9127 43.8863 18.9127 43.5237V39.7509C18.9127 39.39 18.6191 39.0947 18.2565 39.0947ZM18.2565 43.5237H15.9912V39.7509H18.2565V43.5237Z" fill="#1C85E8"/>
<path d="M24.3817 39.0947H22.1164C21.7538 39.0947 21.4602 39.3884 21.4602 39.7509V43.5237C21.4602 43.8863 21.7538 44.1799 22.1164 44.1799H24.3817C24.7442 44.1799 25.0379 43.8863 25.0379 43.5237V39.7509C25.0379 39.39 24.7442 39.0947 24.3817 39.0947ZM24.3817 43.5237H22.1164V39.7509H24.3817V43.5237Z" fill="#1C85E8"/>
<path d="M46.7761 28.9143H49.0415C49.404 28.9143 49.6977 28.6206 49.6977 28.2581V24.4853C49.6977 24.1227 49.404 23.8291 49.0415 23.8291H46.7761C46.4136 23.8291 46.12 24.1227 46.12 24.4853V28.2581C46.12 28.6206 46.4136 28.9143 46.7761 28.9143ZM46.7761 24.4853H49.0415V28.2581H46.7761V24.4853Z" fill="#1C85E8"/>
<path d="M30.5053 31.4619H28.2399C27.8774 31.4619 27.5837 31.7555 27.5837 32.1181V35.8909C27.5837 36.2535 27.8774 36.5471 28.2399 36.5471H30.5053C30.8678 36.5471 31.1614 36.2535 31.1614 35.8909V32.1181C31.1614 31.7555 30.8661 31.4619 30.5053 31.4619ZM30.5053 35.8909H28.2399V32.1181H30.5053V35.8909Z" fill="#1C85E8"/>
<path d="M36.6287 31.4619H34.3634C34.0008 31.4619 33.7072 31.7555 33.7072 32.1181V35.8909C33.7072 36.2535 34.0008 36.5471 34.3634 36.5471H36.6287C36.9912 36.5471 37.2849 36.2535 37.2849 35.8909V32.1181C37.2849 31.7555 36.9912 31.4619 36.6287 31.4619ZM36.6287 35.8909H34.3634V32.1181H36.6287V35.8909Z" fill="#1C85E8"/>
<path d="M40.4885 36.5471H42.7539C43.1164 36.5471 43.4101 36.2535 43.4101 35.8909V32.1181C43.4101 31.7555 43.1164 31.4619 42.7539 31.4619H40.4885C40.126 31.4619 39.8324 31.7555 39.8324 32.1181V35.8909C39.8324 36.2535 40.126 36.5471 40.4885 36.5471ZM40.4885 32.1181H42.7539V35.8909H40.4885V32.1181Z" fill="#1C85E8"/>
<path d="M46.6121 36.5471H48.8774C49.24 36.5471 49.5336 36.2535 49.5336 35.8909V32.1181C49.5336 31.7555 49.24 31.4619 48.8774 31.4619H46.6121C46.2496 31.4619 45.9559 31.7555 45.9559 32.1181V35.8909C45.9559 36.2535 46.2496 36.5471 46.6121 36.5471ZM46.6121 32.1181H48.8774V35.8909H46.6121V32.1181Z" fill="#1C85E8"/>
<path d="M30.5053 39.0947H28.2399C27.8774 39.0947 27.5837 39.3884 27.5837 39.7509V43.5237C27.5837 43.8863 27.8774 44.1799 28.2399 44.1799H30.5053C30.8678 44.1799 31.1614 43.8863 31.1614 43.5237V39.7509C31.1614 39.39 30.8661 39.0947 30.5053 39.0947ZM30.5053 43.5237H28.2399V39.7509H30.5053V43.5237Z" fill="#1C85E8"/>
<path d="M36.6287 39.0947H34.3634C34.0008 39.0947 33.7072 39.3884 33.7072 39.7509V43.5237C33.7072 43.8863 34.0008 44.1799 34.3634 44.1799H36.6287C36.9912 44.1799 37.2849 43.8863 37.2849 43.5237V39.7509C37.2849 39.39 36.9912 39.0947 36.6287 39.0947ZM36.6287 43.5237H34.3634V39.7509H36.6287V43.5237Z" fill="#1C85E8"/>
<path d="M43.4101 43.5237V39.7509C43.4101 39.3884 43.1164 39.0947 42.7539 39.0947H40.4885C40.126 39.0947 39.8324 39.3884 39.8324 39.7509V43.5237C39.8324 43.8863 40.126 44.1799 40.4885 44.1799H42.7539C43.1164 44.1799 43.4101 43.8863 43.4101 43.5237ZM42.7539 43.5237H40.4885V39.7509H42.7539V43.5237Z" fill="#1C85E8"/>
<path d="M46.6121 44.1799H48.8774C49.24 44.1799 49.5336 43.8863 49.5336 43.5237V39.7509C49.5336 39.3884 49.24 39.0947 48.8774 39.0947H46.6121C46.2496 39.0947 45.9559 39.3884 45.9559 39.7509V43.5237C45.9559 43.8863 46.2496 44.1799 46.6121 44.1799ZM46.6121 39.7509H48.8774V43.5237H46.6121V39.7509Z" fill="#1C85E8"/>
<path d="M46.6121 51.8137H48.8774C49.24 51.8137 49.5336 51.5201 49.5336 51.1575V47.3847C49.5336 47.0221 49.24 46.7285 48.8774 46.7285H46.6121C46.2496 46.7285 45.9559 47.0221 45.9559 47.3847V51.1575C45.9559 51.5201 46.2496 51.8137 46.6121 51.8137ZM46.6121 47.3847H48.8774V51.1575H46.6121V47.3847Z" fill="#1C85E8"/>
<path d="M58.0242 58.3851C57.1778 58.3982 56.3297 58.3884 55.4406 58.3884C55.4406 46.0364 55.4406 33.8106 55.4406 21.5947C55.6342 21.5587 55.7441 21.539 55.8523 21.5176C57.5567 21.1765 58.4523 20.1594 58.3801 18.647C58.3129 17.2035 57.3287 16.2504 55.6424 16.1405C55.0403 16.1011 54.8058 15.7829 54.5532 15.358C53.3721 13.3765 52.1549 11.4162 51.0083 9.41332C50.59 8.68335 50.1012 8.36512 49.2367 8.36676C40.2245 8.393 31.2106 8.38152 22.1967 8.38644C21.9015 8.38644 21.5373 8.33395 21.3273 8.48158C21.0698 8.66202 20.809 9.01963 20.7975 9.30997C20.7893 9.51174 21.1666 9.83161 21.4307 9.91691C21.7686 10.0285 22.1672 9.96612 22.5396 9.96612C31.1433 9.96776 39.7471 9.97761 48.3492 9.94972C49.1415 9.94644 49.6468 10.1269 50.0487 10.8552C50.8721 12.3545 51.7973 13.798 52.6716 15.2695C52.8078 15.5008 52.8931 15.7616 53.0112 16.0322C37.3177 16.0322 21.7391 16.0322 6.01279 16.0322C7.19222 14.0654 8.29127 12.2167 9.41657 10.3844C9.53139 10.1958 9.8037 10.0055 10.0137 9.99073C10.7387 9.94316 11.4703 9.97268 12.2774 9.97268C12.2774 10.8437 12.2626 11.5474 12.2823 12.2512C12.2954 12.7269 12.5759 13.0927 13.0418 13.0057C13.3289 12.9516 13.6176 12.6137 13.7914 12.3332C13.9096 12.1396 13.839 11.8263 13.839 11.5655C13.8423 10.4107 13.8407 9.25584 13.8407 8.10266C13.8407 5.75692 13.8423 3.40954 13.8374 1.0638C13.8357 0.496233 13.6979 -0.023766 12.9959 0.000839596C12.3561 0.0238049 12.2643 0.512637 12.2659 1.04248C12.2708 2.53194 12.2675 4.0214 12.2659 5.51086C12.2659 6.43111 12.2659 7.35136 12.2659 8.38316C11.3637 8.38316 10.5878 8.41761 9.81682 8.37332C9.05076 8.32903 8.58326 8.63906 8.20269 9.30013C7.06755 11.2653 5.85859 13.1878 4.71689 15.1497C4.35601 15.7698 3.99348 16.1438 3.18314 16.1684C1.84131 16.2078 0.83576 17.3084 0.725855 18.6207C0.622512 19.851 1.44762 21.0108 2.71071 21.3864C3.05191 21.4881 3.40787 21.5488 3.72774 21.621C3.72774 33.8959 3.72774 46.0938 3.72774 58.3966C2.70251 58.3966 1.74125 58.3851 0.781628 58.4015C0.312481 58.4097 -0.0844904 58.6771 0.0155725 59.1446C0.0828279 59.453 0.446991 59.7909 0.760303 59.9254C1.07526 60.0616 1.49191 59.9697 1.86428 59.9697C20.3365 59.9697 38.8105 59.9697 57.2827 59.9697C57.5436 59.9697 57.8044 59.9664 58.0652 59.9697C58.6442 59.9763 59.1774 59.8171 59.161 59.1512C59.1462 58.4819 58.5967 58.3753 58.0242 58.3851ZM16.024 58.3244C12.512 58.3244 9.03108 58.3244 5.45998 58.3244C5.45998 57.3894 5.45998 56.4445 5.45998 55.3766C8.99499 55.3766 12.4742 55.3766 16.024 55.3766C16.024 56.3707 16.024 57.3156 16.024 58.3244ZM23.0153 58.3392C21.1863 58.3392 19.4934 58.3392 17.6693 58.3392C17.6693 57.601 17.6693 56.9071 17.6693 56.2116C17.6693 54.5384 17.6463 52.8669 17.6775 51.1937C17.707 49.5992 18.8143 48.4559 20.2906 48.4198C21.7981 48.3837 22.9841 49.5615 23.0071 51.2035C23.0382 53.5427 23.0153 55.8819 23.0153 58.3392ZM41.4105 58.3326C39.6159 58.3326 37.9509 58.3326 36.1334 58.3326C36.1334 57.5895 36.1301 56.894 36.1334 56.2001C36.1432 54.4137 36.071 52.6208 36.1891 50.841C36.3286 48.761 38.7038 47.6816 40.3245 48.9611C40.8281 49.3597 41.3334 50.0963 41.3612 50.6999C41.4777 53.2163 41.4105 55.7408 41.4105 58.3326ZM42.9885 50.7508C42.8376 48.7446 41.4646 47.2978 39.5109 46.932C37.1291 46.4875 34.8161 48.218 34.6095 50.6425C34.534 51.53 34.5799 52.4272 34.5635 53.3213C34.5619 53.4344 34.5537 53.8593 34.5438 54.422C33.704 54.422 32.8641 54.422 32.0242 54.422C31.5485 54.422 31.5485 55.1601 32.0242 55.1601C32.8592 55.1601 33.6958 55.1601 34.5307 55.1601C34.511 56.3461 34.4897 57.7618 34.4897 58.331C31.209 58.331 27.9856 58.331 24.677 58.331C24.677 57.8963 24.6639 56.5741 24.6458 55.1601C25.5611 55.1601 26.4781 55.1601 27.3934 55.1601C27.8692 55.1601 27.8692 54.422 27.3934 54.422C26.4748 54.422 25.5562 54.422 24.636 54.422C24.6179 52.9883 24.5966 51.6021 24.5835 51.0772C24.5326 49.1317 23.281 47.5061 21.4947 47.0157C18.8274 46.2824 16.2159 48.1836 16.1027 50.9722C16.0568 52.1172 16.0945 53.2655 16.0945 54.4826C12.512 54.4826 9.02944 54.4826 5.45834 54.4826C5.45834 43.5561 5.45834 32.6345 5.45834 21.621C21.4832 21.621 37.5441 21.621 53.6952 21.621C53.6952 32.5196 53.6952 43.4413 53.6952 54.481C50.1373 54.481 46.6564 54.481 43.0033 54.481C43.0065 53.1884 43.0804 51.963 42.9885 50.7508ZM53.7133 58.326C50.1914 58.326 46.722 58.326 43.105 58.326C43.105 57.3303 43.105 56.4166 43.105 55.4111C46.6449 55.4111 50.1422 55.4111 53.7133 55.4111C53.7133 56.3789 53.7133 57.3221 53.7133 58.326ZM54.9813 19.9462C38.0378 19.9478 21.096 19.9478 4.1526 19.9462C3.85569 19.9462 3.54894 19.9724 3.26188 19.9134C2.63525 19.7854 2.26289 19.3655 2.30882 18.729C2.34983 18.1614 2.68939 17.7645 3.30945 17.7153C3.60636 17.6923 3.9049 17.6956 4.20181 17.6956C12.6547 17.6939 21.1075 17.6956 29.5604 17.6956C37.9378 17.6956 46.3168 17.6939 54.6942 17.6956C55.0666 17.6956 55.4406 17.6857 55.8097 17.7153C56.4183 17.7645 56.7578 18.1155 56.7988 18.7208C56.8431 19.3819 56.497 19.7821 55.8704 19.9134C55.5849 19.9757 55.2782 19.9462 54.9813 19.9462Z" fill="#1C85E8"/>
<path d="M30.2051 54.4199C29.8753 54.4199 29.5456 54.4199 29.2159 54.4199C29.0223 54.4199 28.8386 54.5889 28.8468 54.789C28.855 54.9891 29.0092 55.1581 29.2159 55.1581C29.5456 55.1581 29.8753 55.1581 30.2051 55.1581C30.3986 55.1581 30.5823 54.9891 30.5741 54.789C30.5643 54.5889 30.4117 54.4199 30.2051 54.4199Z" fill="#1C85E8"/>
</svg>
