<svg width="39" height="45" viewBox="0 0 39 45" fill="none" xmlns="http://www.w3.org/2000/svg">
<path d="M23.405 24.0225H21.1095C20.7421 24.0225 20.4446 24.32 20.4446 24.6873V28.5104C20.4446 28.8778 20.7421 29.1753 21.1095 29.1753H23.405C23.7723 29.1753 24.0698 28.8778 24.0698 28.5104V24.6873C24.0698 24.32 23.7723 24.0225 23.405 24.0225ZM23.405 28.5104H21.1095V24.6873H23.405V28.5104Z" fill="#1C85E8"/>
<path d="M29.6116 24.0225H27.3144C26.9471 24.0225 26.6495 24.32 26.6495 24.6873V28.5104C26.6495 28.8778 26.9471 29.1753 27.3144 29.1753H29.6116C29.9789 29.1753 30.2765 28.8778 30.2765 28.5104V24.6873C30.2765 24.32 29.9789 24.0225 29.6116 24.0225ZM29.6116 28.5104H27.3144V24.6873H29.6116V28.5104Z" fill="#1C85E8"/>
<path d="M29.6116 31.8447H27.3144C26.9471 31.8447 26.6495 32.1423 26.6495 32.5096V36.3327C26.6495 36.7 26.9471 36.9976 27.3144 36.9976H29.6116C29.9789 36.9976 30.2765 36.7 30.2765 36.3327V32.5096C30.2765 32.1423 29.9789 31.8447 29.6116 31.8447ZM29.6116 36.3327H27.3144V32.5096H29.6116V36.3327Z" fill="#1C85E8"/>
<path d="M14.0848 24.6873V28.5104C14.0848 28.8778 14.3824 29.1753 14.7497 29.1753H17.0452C17.4126 29.1753 17.7101 28.8778 17.7101 28.5104V24.6873C17.7101 24.32 17.4126 24.0225 17.0452 24.0225H14.7497C14.3824 24.0225 14.0848 24.32 14.0848 24.6873ZM14.7497 24.6873H17.0452V28.5104H14.7497V24.6873Z" fill="#1C85E8"/>
<path d="M7.8783 24.6873V28.5104C7.8783 28.8778 8.17583 29.1753 8.54318 29.1753H10.8403C11.2077 29.1753 11.5052 28.8778 11.5052 28.5104V24.6873C11.5052 24.32 11.2077 24.0225 10.8403 24.0225H8.54318C8.17583 24.0225 7.8783 24.32 7.8783 24.6873ZM8.54318 24.6873H10.8403V28.5104H8.54318V24.6873Z" fill="#1C85E8"/>
<path d="M7.8783 32.5096V36.3327C7.8783 36.7 8.17583 36.9976 8.54318 36.9976H10.8403C11.2077 36.9976 11.5052 36.7 11.5052 36.3327V32.5096C11.5052 32.1423 11.2077 31.8447 10.8403 31.8447H8.54318C8.17583 31.8447 7.8783 32.1423 7.8783 32.5096ZM8.54318 32.5096H10.8403V36.3327H8.54318V32.5096Z" fill="#1C85E8"/>
<path d="M14.833 38.6162V39.449C14.833 39.1664 14.8313 38.8905 14.828 38.6162H14.833Z" fill="#1C85E8"/>
<path d="M17.6902 9.97891V9.97559H16.0945H16.038L17.6902 9.97891Z" fill="#1C85E8"/>
<path d="M37.0583 43.4591C36.169 43.4608 35.2814 43.4591 34.3555 43.4591V21.7258C34.6198 21.6643 34.7993 21.6195 34.9822 21.5812C36.5546 21.2455 37.4988 20.175 37.4273 18.8054C37.3541 17.3958 36.3435 16.3885 34.7578 16.2688C34.1461 16.2223 33.8236 15.9663 33.5311 15.4677C32.4108 13.5495 31.2007 11.6795 30.1302 9.73306C29.6183 8.80222 29.0249 8.39 27.981 8.38667V8.39332H27.6103C26.9222 8.41493 26.2357 8.4249 25.5475 8.43155L21.6846 8.4997C21.2973 8.53295 20.9931 8.85375 20.9931 9.24936C20.9931 9.256 20.9948 9.26265 20.9948 9.2693C20.9948 9.27595 20.9931 9.28426 20.9931 9.29091C20.9931 9.30587 20.9981 9.32249 21.0014 9.33911C21.0396 9.65659 21.274 9.9159 21.5799 9.98571H22.2082C22.268 9.98405 22.3262 9.98239 22.3844 9.98239C23.124 9.98239 25.9365 9.94249 25.9365 9.94249C26.4917 9.93917 27.0485 9.93584 27.6053 9.9292C28.2569 9.91922 28.6243 10.1336 28.9451 10.6955C29.9657 12.4774 31.0428 14.2276 32.1847 16.1325H5.97177C6.96244 14.4803 7.90325 12.9461 8.80084 11.4052C9.00197 11.0728 9.20309 10.742 9.40588 10.4112C9.5588 10.2201 9.73167 10.0888 9.94277 10.014C9.95108 10.014 9.95939 10.0106 9.96771 10.0106C10.739 9.97241 11.5136 9.99402 12.3712 9.99402C12.3712 10.8168 12.3762 11.4534 12.3696 12.0884C12.3629 12.5837 12.466 13.0458 13.0411 13.0841C13.6944 13.1256 13.8506 12.6236 13.8523 12.095C13.8606 8.39997 13.8622 4.70489 13.8523 1.00982C13.8506 0.496198 13.7476 -0.0240711 13.0677 0.000861888C12.3779 0.0241327 12.3696 0.559362 12.3696 1.068C12.3696 3.10419 12.3696 5.14039 12.3679 7.17659V8.39332H9.95441C9.65521 8.41327 9.39591 8.47311 9.16486 8.57284C8.72604 8.74072 8.38529 9.08147 8.08942 9.61172C7.2151 11.1775 6.26931 12.7034 5.34346 14.2426H5.35509C5.10909 14.6498 4.86474 15.0571 4.62539 15.4677C4.33284 15.9663 4.01037 16.2223 3.39868 16.2688C1.81294 16.3885 0.802323 17.3958 0.729186 18.8054C0.657711 20.175 1.60184 21.2455 3.17428 21.5812C3.35713 21.6195 3.53665 21.6643 3.80094 21.7258V43.4591C2.87509 43.4591 1.98747 43.4608 1.09819 43.4591C0.534708 43.4575 -0.0287785 43.514 0.00114111 44.2553C0.0260741 44.9069 0.554654 44.9751 1.07326 44.9834C1.29932 44.9867 1.52538 44.985 1.75144 44.985C6.04325 44.985 10.3866 44.9884 14.7565 44.9934V45C15.6209 45 16.4902 44.9983 17.3562 44.9967C17.8316 44.9983 18.307 44.9983 18.7824 45H19.3741C25.1021 44.9917 30.7968 44.985 36.405 44.985C36.6311 44.985 36.8572 44.9867 37.0832 44.9834C37.6018 44.9751 38.1304 44.9069 38.1553 44.2553C38.1852 43.514 37.6218 43.4575 37.0583 43.4591ZM14.7565 43.386H5.45649C5.45649 43.1167 5.45483 41.9781 5.4515 40.3309H7.42121C7.4744 40.3309 7.52261 40.3209 7.56749 40.301H14.7565V43.386ZM21.7943 43.3561H16.3356C16.3356 42.4036 16.3339 41.5094 16.3356 40.6168C16.3389 39.036 16.3057 37.4519 16.3622 35.8728C16.4137 34.4018 17.5357 33.3164 18.9569 33.2482C20.3415 33.1834 21.6995 34.204 21.7627 35.6484C21.8741 38.1916 21.7943 40.7448 21.7943 43.3561ZM32.705 39.5829H30.7353C30.5391 39.5829 30.353 39.7557 30.3613 39.9569C30.3696 40.1597 30.5258 40.3309 30.7353 40.3309H32.705C32.7016 41.9781 32.7 43.1167 32.7 43.386H23.4V41.639C23.395 41.2285 23.39 40.773 23.3817 40.301H29.3656C29.5601 40.301 29.7479 40.1297 29.7396 39.927C29.7296 39.7242 29.575 39.553 29.3656 39.553H23.4V39.5114H23.3684C23.3335 37.6381 23.2753 35.6933 23.1855 35.1548C22.8315 33.0421 20.8684 31.5977 18.7707 31.7739C16.6182 31.9534 14.9377 33.6172 14.8429 35.7382C14.7997 36.679 14.818 37.6231 14.828 38.6155C14.8313 38.8897 14.833 39.1657 14.833 39.4482V39.553H7.12866C7.07547 39.553 7.02727 39.5629 6.98405 39.5829H5.4515C5.44485 34.558 5.43322 25.9296 5.43322 21.7292H32.7233C32.7233 25.9296 32.7116 34.558 32.705 39.5829ZM18.2106 20.1235L16.6215 20.1218C13.4949 20.1235 10.3666 20.1251 7.23837 20.1251H3.80426C3.61643 20.1251 3.42195 20.1335 3.24244 20.0886C2.63074 19.934 2.23514 19.5517 2.24678 18.8984C2.25841 18.2452 2.65069 17.8612 3.28399 17.7548C3.5782 17.705 3.88238 17.7116 4.18324 17.7116C8.33044 17.71 12.476 17.71 16.6215 17.7133H18.2106V17.7116C22.9445 17.7083 29.7928 17.71 33.9732 17.7116C34.2741 17.7116 34.5783 17.705 34.8725 17.7548C35.5058 17.8612 35.8981 18.2452 35.9097 18.8984C35.9213 19.5517 35.5257 19.934 34.914 20.0886C34.7345 20.1335 34.54 20.1251 34.3522 20.1251C30.0454 20.1268 23.0692 20.1268 18.2106 20.1235Z" fill="#1C85E8"/>
<path d="M16.0381 9.96849V9.97514L17.81 9.97846C17.81 10.7913 17.8167 11.4229 17.8067 12.0545C17.8 12.5964 17.9214 13.0868 18.5613 13.0851C19.1265 13.0851 19.3027 12.628 19.3043 12.1377C19.3126 9.95519 19.3126 7.77272 19.3043 5.58858C19.3027 5.09657 19.1232 4.63115 18.5696 4.63282C17.953 4.63448 17.7967 5.10821 17.805 5.66338C17.82 6.55765 17.81 8.4858 17.81 8.4858L16.1328 8.48913C15.7223 8.48913 15.3882 8.82323 15.3882 9.23379C15.3882 9.61444 15.6724 9.92194 16.0381 9.96849Z" fill="#1C85E8"/>
</svg>
