<svg xmlns="http://www.w3.org/2000/svg" xmlns:xlink="http://www.w3.org/1999/xlink" width="594" height="555" viewBox="0 0 594 555">
  <defs>
    <clipPath id="clip-path">
      <rect id="Rectangle_3" data-name="Rectangle 3" width="594" height="555" transform="translate(846 345)" fill="#d5d5d5"/>
    </clipPath>
    <clipPath id="clip-path-2">
      <path id="Path_1" data-name="Path 1" d="M229.6,1311.958V485.41c0-137.737,111.5-255.806,255.806-255.806,32.8,0,72.167,6.535,104.968,19.668a256.1,256.1,0,0,1,131.2,131.2c32.8,85.269,26.234,177.1-26.234,249.271-45.933,72.167-124.636,111.5-209.936,111.5H446.074V603.511l26.234,6.535h13.1c39.367,0,78.734-19.668,98.4-52.468,19.7-32.8,26.234-78.7,6.566-118.069-6.566-19.668-26.234-39.367-45.9-45.933-19.7-6.535-39.367-13.1-59.066-13.1A117.589,117.589,0,0,0,367.341,498.543V826.548q59.05,19.652,118.069,19.668c124.636,0,236.17-65.6,301.771-170.569,19.668-26.234,32.8-59.035,39.367-91.835,32.8-124.636-6.566-249.271-98.4-341.107-65.6-59.035-150.87-98.4-242.736-98.4-124.636,0-229.572,59.035-295.173,164-32.8,45.933-52.468,111.534-52.468,170.569v623.178H0V472.309C0,268.939,124.636,91.835,314.872,26.234,373.907,6.566,426.375,0,485.41,0c131.2,0,249.3,52.468,341.138,144.3s144.3,216.471,144.3,341.107c0,262.4-209.9,478.875-472.309,485.441H485.41c-39.336,0-78.7-6.566-118.069-13.133v354.239Z" transform="translate(660.099 350)" fill="#102a5e"/>
    </clipPath>
  </defs>
  <g id="img_p" transform="translate(-846 -345)">
    <g id="Mask_Group_2" data-name="Mask Group 2" clip-path="url(#clip-path)">
      <g id="Mask_Group_1" data-name="Mask Group 1" transform="translate(0.901)" clip-path="url(#clip-path-2)">
        <rect id="Rectangle_2" data-name="Rectangle 2" width="594" height="555" transform="translate(846 345)" fill="#102a5e"/>
      </g>
    </g>
  </g>
</svg>
