<svg width="40" height="40" viewBox="0 0 40 40" fill="none" xmlns="http://www.w3.org/2000/svg">
<circle cx="20" cy="20" r="20" fill="#E3E5EF"/>
<path d="M15.7838 30.6216V17C15.7838 14.7297 17.6216 12.7838 20 12.7838C20.5405 12.7838 21.1892 12.8919 21.7297 13.1081C22.7027 13.5405 23.4595 14.2973 23.8919 15.2703C24.4324 16.6757 24.3243 18.1892 23.4595 19.3784C22.7027 20.5676 21.4054 21.2162 20 21.2162C19.8919 21.2162 19.7838 21.2162 19.6757 21.2162H19.3514V18.9459L19.7838 19.0541C19.8919 19.0541 20 19.0541 20 19.0541C20.6486 19.0541 21.2973 18.7297 21.6216 18.1892C21.9459 17.6486 22.0541 16.8919 21.7297 16.2432C21.6216 15.9189 21.2973 15.5946 20.973 15.4865C20.6486 15.3784 20.3243 15.2703 20 15.2703C18.9189 15.2703 18.0541 16.1351 18.0541 17.2162V22.6216C18.7027 22.8378 19.3514 22.9459 20 22.9459C22.0541 22.9459 23.8919 21.8649 24.973 20.1351C25.2973 19.7027 25.5135 19.1622 25.6216 18.6216C26.1622 16.5676 25.5135 14.5135 24 13C22.9189 12.027 21.5135 11.3784 20 11.3784C17.9459 11.3784 16.2162 12.3514 15.1351 14.0811C14.5946 14.8378 14.2703 15.9189 14.2703 16.8919V27.1622H12V16.7838C12 13.4324 14.0541 10.5135 17.1892 9.43243C18.1622 9.10811 19.027 9 20 9C22.1622 9 24.1081 9.86486 25.6216 11.3784C27.1351 12.8919 28 14.9459 28 17C28 21.3243 24.5405 24.8919 20.2162 25H20C19.3514 25 18.7027 24.8919 18.0541 24.7838V30.6216H15.7838Z" fill="#8A93A6"/>
</svg>
