<svg width="109" height="21" viewBox="0 0 109 21" fill="none" xmlns="http://www.w3.org/2000/svg">
<path d="M3.01148 20.6976C1.96986 20.6976 0.996794 20.6976 0 20.6976C0 15.0108 0 9.34256 0 3.64923C0.119985 3.64264 0.226784 3.63209 0.332265 3.63209C2.61593 3.63077 4.90091 3.60044 7.18457 3.64659C8.06533 3.66505 8.96456 3.76789 9.815 3.99072C11.471 4.42451 12.5615 5.51228 12.9873 7.18943C13.3486 8.61079 13.3433 10.0427 12.866 11.4403C12.2595 13.2177 10.9028 14.1063 9.13465 14.4254C8.43715 14.5507 7.71725 14.5797 7.00657 14.5955C5.81068 14.6219 4.61215 14.6034 3.41626 14.6034C3.29628 14.6034 3.17761 14.6034 3.0128 14.6034C3.01148 16.6418 3.01148 18.6539 3.01148 20.6976ZM3.02071 11.7198C4.6016 11.7198 6.1469 11.7291 7.69219 11.7119C7.99413 11.708 8.30135 11.6249 8.59406 11.5392C9.32847 11.323 9.83477 10.8549 10.0589 10.1113C10.2356 9.5232 10.2475 8.92591 10.1486 8.32071C9.9864 7.32787 9.42604 6.68708 8.45034 6.4537C8.0271 6.35218 7.58539 6.29416 7.15029 6.28625C5.86606 6.26516 4.58183 6.27834 3.2976 6.27834C3.21189 6.27834 3.12751 6.29021 3.02203 6.29812C3.02071 8.10843 3.02071 9.90293 3.02071 11.7198Z" fill="#102A5E"/>
<path d="M23.6527 12.7832C23.5656 12.1305 23.5485 11.5227 23.3955 10.9505C23.1477 10.0209 22.4185 9.64645 21.5153 9.57261C19.9846 9.44736 18.8019 9.96685 18.1466 11.433C18.1334 11.462 18.1083 11.4858 18.0714 11.5332C17.2407 11.0955 16.4101 10.6577 15.5464 10.2042C16.1899 8.90281 17.0298 7.80976 18.3957 7.26522C20.1335 6.57168 21.9214 6.57564 23.683 7.15842C25.194 7.65814 26.0299 8.81051 26.3464 10.3281C26.4861 10.9992 26.5376 11.6967 26.556 12.385C26.589 13.6139 26.5903 14.8453 26.5547 16.0742C26.5376 16.6609 26.4743 17.2622 26.3134 17.8239C25.9258 19.1832 24.9764 20.0587 23.6632 20.4925C21.7777 21.1149 19.8633 21.165 17.9738 20.5083C16.7081 20.068 15.7614 19.2492 15.3856 17.9109C14.8898 16.1493 15.4621 13.8789 17.9316 13.1155C18.7491 12.8623 19.5837 12.7819 20.4328 12.7832C21.3439 12.7845 22.2564 12.7832 23.1674 12.7832C23.2861 12.7832 23.4061 12.7832 23.6527 12.7832ZM23.5485 15.1802C22.9499 15.1802 22.3803 15.1736 21.8107 15.1816C21.0974 15.1921 20.3814 15.175 19.6734 15.2396C18.7715 15.3213 18.281 15.8263 18.2257 16.6201C18.1742 17.369 18.5632 17.8608 19.4426 18.0942C20.2601 18.3117 21.0921 18.3354 21.9214 18.1588C22.8088 17.9702 23.4206 17.4705 23.5393 16.5304C23.5933 16.1032 23.5485 15.6615 23.5485 15.1802Z" fill="#102A5E"/>
<path d="M73.1721 20.9613C71.4026 20.9389 69.9641 20.6304 68.7696 19.598C67.7003 18.6737 67.1412 17.4633 66.8841 16.1039C66.5466 14.3213 66.565 12.5439 67.0885 10.7943C67.7978 8.42623 69.6279 6.97718 72.0988 6.8005C73.0903 6.73062 74.0739 6.75699 75.0378 7.02729C76.8309 7.52832 78.0638 8.66752 78.661 10.4119C79.4732 12.7839 79.4706 15.1876 78.5635 17.5358C77.8396 19.4094 76.3958 20.4682 74.4378 20.8255C73.9434 20.9165 73.4358 20.9349 73.1721 20.9613ZM69.6767 14.0813C69.7044 14.3674 69.7308 14.8724 69.8046 15.3708C70.0696 17.1719 71.0611 18.0804 72.8213 18.1634C74.4523 18.2399 75.5388 17.4752 75.9568 15.8916C76.3273 14.4848 76.3128 13.0621 75.9159 11.6605C75.6166 10.6018 74.9468 9.85417 73.8287 9.65244C73.3184 9.56015 72.7765 9.56015 72.2597 9.61816C71.1956 9.73683 70.4757 10.3513 70.0788 11.3401C69.7532 12.151 69.7004 13.0054 69.6767 14.0813Z" fill="#102A5E"/>
<path d="M108.917 13.8673C108.933 15.0514 108.792 16.2116 108.37 17.3258C107.711 19.0662 106.505 20.2265 104.694 20.7012C103.229 21.0849 101.755 21.0717 100.308 20.6128C98.6089 20.0736 97.4749 18.9106 96.9119 17.2427C96.1551 15.0012 96.1564 12.7281 96.9054 10.4853C97.6345 8.30057 99.4923 6.95174 101.841 6.79879C102.956 6.72627 104.06 6.76978 105.124 7.14556C107.07 7.83382 108.167 9.27891 108.62 11.229C108.821 12.0887 108.877 12.9813 109 13.8581C108.972 13.8607 108.945 13.8647 108.917 13.8673ZM99.3591 13.8621C99.4158 14.3961 99.4488 14.934 99.5331 15.4627C99.8127 17.2124 100.812 18.0971 102.559 18.167C104.115 18.229 105.209 17.5038 105.622 16.0574C106.047 14.5701 106.043 13.0617 105.594 11.5758C105.287 10.5539 104.619 9.84851 103.545 9.65732C103.025 9.56503 102.471 9.56371 101.943 9.62568C100.894 9.74962 100.183 10.3575 99.7942 11.3371C99.4725 12.1467 99.3894 12.9945 99.3591 13.8621Z" fill="#102A5E"/>
<path d="M66.9922 3.18854C66.2697 3.73177 65.5643 4.26313 64.8417 4.80636C64.4264 4.35015 64.0005 3.95724 63.4138 3.80033C62.7809 3.63025 62.1507 3.63684 61.5376 3.86758C60.8823 4.11414 60.4537 4.60067 60.3311 5.28102C60.2335 5.82425 60.2494 6.38857 60.2125 6.9819C61.9819 6.9819 63.6907 6.9819 65.4298 6.9819C65.4298 7.89563 65.4298 8.77639 65.4298 9.69144C63.7157 9.69144 62.0083 9.69144 60.2441 9.69144C60.2441 11.5545 60.2441 13.3833 60.2441 15.212C60.2441 17.0329 60.2441 18.8525 60.2441 20.6944C59.2381 20.6944 58.2676 20.6944 57.2603 20.6944C57.2603 17.0356 57.2603 13.3938 57.2603 9.71122C56.5299 9.71122 55.8337 9.71122 55.1138 9.71122C55.1138 8.79749 55.1138 7.92464 55.1138 7.01223C55.8086 7.01223 56.5061 7.01223 57.2564 7.01223C57.2564 6.74721 57.2603 6.52042 57.255 6.29364C57.2326 5.32717 57.3368 4.38443 57.7838 3.50894C58.5314 2.04671 59.7879 1.31626 61.3622 1.07102C63.5364 0.732158 65.3718 1.37559 66.8512 3.01186C66.896 3.05669 66.9316 3.10943 66.9922 3.18854Z" fill="#102A5E"/>
<path d="M53.0596 9.86866C52.2104 10.2748 51.4022 10.6624 50.6111 11.0408C50.5623 11.0065 50.5359 10.9986 50.528 10.9815C49.8424 9.53772 48.5529 9.24764 47.0537 9.39927C46.8283 9.42169 46.5975 9.48102 46.3879 9.56804C45.6034 9.88712 45.3832 10.8325 45.9884 11.4298C46.2666 11.7053 46.641 11.9282 47.0115 12.0574C47.9741 12.3923 48.9629 12.6481 49.9321 12.9619C50.7957 13.2414 51.5921 13.6422 52.2263 14.3265C53.4367 15.6319 53.5685 18.7594 51.1754 20.1254C49.9373 20.8321 48.5924 21.0009 47.2001 20.9389C45.9449 20.8835 44.7714 20.5723 43.7614 19.7852C43.0072 19.1984 42.4877 18.439 42.1133 17.5173C42.9492 17.1956 43.7627 16.8831 44.596 16.5641C44.6224 16.6049 44.6461 16.63 44.658 16.6603C45.0588 17.6584 45.8302 18.1661 46.8665 18.2966C47.5996 18.3889 48.3367 18.4087 49.0566 18.1964C49.5932 18.0382 50.0178 17.7468 50.0969 17.1389C50.1799 16.5008 49.9624 16.034 49.3176 15.7664C48.603 15.4697 47.8422 15.2825 47.1012 15.0491C46.4433 14.8421 45.7656 14.6812 45.1287 14.4241C43.118 13.6093 42.4653 11.9625 42.7897 10.0071C43.0006 8.73079 43.7311 7.79728 44.9283 7.32394C47.0801 6.47218 49.2042 6.55524 51.2216 7.75245C52.0404 8.23898 52.6205 8.96812 53.0596 9.86866Z" fill="#102A5E"/>
<path d="M29.0178 17.5154C29.8709 17.1884 30.6765 16.8799 31.4623 16.5793C31.5124 16.6122 31.5388 16.6215 31.5454 16.6373C32.0174 17.8015 32.9483 18.2894 34.135 18.325C34.7323 18.3435 35.3427 18.2986 35.9295 18.1892C36.5874 18.0679 36.9605 17.6249 37.0212 17.0684C37.0818 16.5068 36.8195 16.0031 36.1892 15.7473C35.4812 15.4612 34.7375 15.2568 34.0005 15.0524C33.1223 14.8085 32.2376 14.5936 31.4386 14.1348C30.3482 13.5085 29.7522 12.5697 29.6415 11.3158C29.4226 8.82512 30.8321 7.37476 32.9206 6.95942C34.7402 6.59815 36.5096 6.72737 38.1274 7.7479C38.9291 8.2542 39.6477 9.10992 39.9391 9.87729C39.1282 10.2663 38.3133 10.6578 37.484 11.0547C37.4484 11.0046 37.4246 10.9809 37.4115 10.9519C36.7667 9.52788 35.3638 9.23254 33.924 9.40526C33.7196 9.43032 33.5113 9.4791 33.3201 9.55557C32.4868 9.88652 32.2745 10.8635 32.9325 11.4766C33.2041 11.7311 33.5588 11.9368 33.9121 12.0568C34.876 12.3864 35.8635 12.6488 36.834 12.9587C37.5802 13.1973 38.2711 13.5454 38.875 14.0636C40.4111 15.3847 40.5073 18.7456 38.0813 20.1234C36.8313 20.8328 35.4772 21.0029 34.073 20.9356C32.8165 20.8763 31.6469 20.5572 30.6409 19.7661C29.8986 19.182 29.387 18.4318 29.0178 17.5154Z" fill="#102A5E"/>
<path d="M82.4584 1.25C83.4776 1.25 84.4388 1.25 85.4396 1.25C85.4396 1.40954 85.4396 1.5493 85.4396 1.68906C85.4396 6.83917 85.4396 11.9893 85.4396 17.1394C85.4396 17.2488 85.4369 17.3596 85.4409 17.469C85.4646 18.0346 85.7072 18.2562 86.2781 18.2298C86.464 18.2206 86.6499 18.1995 86.8543 18.1823C86.8662 18.2628 86.8873 18.3353 86.8873 18.4078C86.8899 19.0881 86.8833 19.7698 86.8926 20.4502C86.8952 20.6427 86.8451 20.7534 86.6434 20.8022C85.7837 21.0092 84.9227 21.0395 84.0775 20.7666C83.0504 20.4357 82.6839 19.5944 82.5388 18.624C82.4808 18.2351 82.4624 17.8369 82.4624 17.4426C82.4571 12.1607 82.4584 6.87872 82.4584 1.59677C82.4584 1.48865 82.4584 1.38053 82.4584 1.25Z" fill="#102A5E"/>
<path d="M90.0913 7.00879C91.0855 7.00879 92.0493 7.00879 93.0395 7.00879C93.0395 11.5708 93.0395 16.1184 93.0395 20.691C92.0612 20.691 91.0907 20.691 90.0913 20.691C90.0913 16.1408 90.0913 11.5919 90.0913 7.00879Z" fill="#102A5E"/>
<path d="M93.634 3.08185C93.671 4.81306 91.9872 5.83095 90.4683 4.98182C90.2455 4.85788 90.0371 4.67066 89.8842 4.46497C89.3502 3.7477 89.3607 2.49775 89.8776 1.76466C90.3417 1.10672 91.3082 0.819285 92.2206 1.06848C93.0156 1.28472 93.5365 1.9176 93.609 2.75354C93.6195 2.86298 93.6261 2.97241 93.634 3.08185Z" fill="#102A5E"/>
</svg>
