<svg width="211" height="42" viewBox="0 0 211 42" fill="none" xmlns="http://www.w3.org/2000/svg">
<path d="M7.34266 41.958V15.5245C7.34266 11.1189 10.9091 7.34266 15.5245 7.34266C16.5734 7.34266 17.8322 7.55245 18.8811 7.97203C20.7692 8.81119 22.2378 10.2797 23.0769 12.1678C24.1259 14.8951 23.9161 17.8322 22.2378 20.1399C20.7692 22.4476 18.2517 23.7063 15.5245 23.7063C15.3147 23.7063 15.1049 23.7063 14.8951 23.7063H14.2657V19.3007L15.1049 19.5105C15.3147 19.5105 15.5245 19.5105 15.5245 19.5105C16.7832 19.5105 18.042 18.8811 18.6713 17.8322C19.3007 16.7832 19.5105 15.3147 18.8811 14.0559C18.6713 13.4266 18.042 12.7972 17.4126 12.5874C16.7832 12.3776 16.1538 12.1678 15.5245 12.1678C13.4266 12.1678 11.7483 13.8462 11.7483 15.9441V26.4336C13.007 26.8531 14.2657 27.0629 15.5245 27.0629C19.5105 27.0629 23.0769 24.965 25.1748 21.6084C25.8042 20.7692 26.2238 19.7203 26.4336 18.6713C27.4825 14.6853 26.2238 10.6993 23.2867 7.76224C21.1888 5.87413 18.4615 4.61538 15.5245 4.61538C11.5385 4.61538 8.18182 6.5035 6.08392 9.86014C5.03497 11.3287 4.40559 13.4266 4.40559 15.3147V35.2448H0V15.1049C0 8.6014 3.98601 2.93706 10.0699 0.83916C11.958 0.209789 13.6364 0 15.5245 0C19.7203 0 23.4965 1.67832 26.4336 4.61538C29.3706 7.55245 31.049 11.5385 31.049 15.5245C31.049 23.9161 24.3357 30.8392 15.9441 31.049H15.5245C14.2657 31.049 13.007 30.8392 11.7483 30.6294V41.958H7.34266Z" fill="#102A5E"/>
<path d="M54.0115 32.6956C52.9699 32.6956 51.9968 32.6956 51 32.6956C51 27.0089 51 21.3406 51 15.6473C51.12 15.6407 51.2268 15.6301 51.3323 15.6301C53.6159 15.6288 55.9009 15.5985 58.1846 15.6446C59.0653 15.6631 59.9646 15.7659 60.815 15.9888C62.471 16.4226 63.5615 17.5103 63.9873 19.1875C64.3486 20.6088 64.3433 22.0407 63.866 23.4384C63.2595 25.2157 61.9028 26.1044 60.1346 26.4235C59.4372 26.5487 58.7172 26.5777 58.0066 26.5936C56.8107 26.6199 55.6122 26.6015 54.4163 26.6015C54.2963 26.6015 54.1776 26.6015 54.0128 26.6015C54.0115 28.6399 54.0115 30.6519 54.0115 32.6956ZM54.0207 23.7179C55.6016 23.7179 57.1469 23.7271 58.6922 23.71C58.9941 23.706 59.3013 23.6229 59.5941 23.5372C60.3285 23.321 60.8348 22.8529 61.0589 22.1093C61.2356 21.5212 61.2475 20.924 61.1486 20.3188C60.9864 19.3259 60.426 18.6851 59.4503 18.4517C59.0271 18.3502 58.5854 18.2922 58.1503 18.2843C56.8661 18.2632 55.5818 18.2764 54.2976 18.2764C54.2119 18.2764 54.1275 18.2883 54.022 18.2962C54.0207 20.1065 54.0207 21.901 54.0207 23.7179Z" fill="#102A5E"/>
<path d="M74.6528 24.7832C74.5658 24.1305 74.5486 23.5227 74.3957 22.9505C74.1478 22.0209 73.4186 21.6465 72.5155 21.5726C70.9847 21.4474 69.802 21.9668 69.1467 23.433C69.1335 23.462 69.1084 23.4858 69.0715 23.5332C68.2409 23.0955 67.4102 22.6577 66.5466 22.2042C67.19 20.9028 68.0299 19.8098 69.3959 19.2652C71.1337 18.5717 72.9216 18.5756 74.6831 19.1584C76.1941 19.6581 77.0301 20.8105 77.3465 22.3281C77.4863 22.9992 77.5377 23.6967 77.5561 24.385C77.5891 25.6139 77.5904 26.8453 77.5548 28.0742C77.5377 28.6609 77.4744 29.2622 77.3135 29.8239C76.9259 31.1832 75.9766 32.0587 74.6633 32.4925C72.7779 33.1149 70.8634 33.165 68.9739 32.5083C67.7082 32.068 66.7615 31.2492 66.3857 29.9109C65.89 28.1493 66.4622 25.8789 68.9318 25.1155C69.7492 24.8623 70.5839 24.7819 71.433 24.7832C72.3441 24.7845 73.2565 24.7832 74.1676 24.7832C74.2862 24.7832 74.4062 24.7832 74.6528 24.7832ZM74.5486 27.1802C73.95 27.1802 73.3804 27.1736 72.8108 27.1816C72.0975 27.1921 71.3816 27.175 70.6735 27.2396C69.7716 27.3213 69.2812 27.8263 69.2258 28.6201C69.1744 29.369 69.5633 29.8608 70.4428 30.0942C71.2602 30.3117 72.0922 30.3354 72.9216 30.1588C73.8089 29.9702 74.4207 29.4705 74.5394 28.5304C74.5934 28.1032 74.5486 27.6615 74.5486 27.1802Z" fill="#102A5E"/>
<path d="M124.172 32.9594C122.403 32.9369 120.964 32.6284 119.77 31.596C118.7 30.6717 118.141 29.4614 117.884 28.102C117.547 26.3193 117.565 24.542 118.088 22.7923C118.798 20.4243 120.628 18.9752 123.099 18.7986C124.09 18.7287 125.074 18.755 126.038 19.0253C127.831 19.5264 129.064 20.6656 129.661 22.41C130.473 24.782 130.471 27.1856 129.563 29.5339C128.84 31.4075 127.396 32.4662 125.438 32.8236C124.943 32.9145 124.436 32.933 124.172 32.9594ZM120.677 26.0794C120.704 26.3655 120.731 26.8705 120.805 27.3689C121.07 29.17 122.061 30.0784 123.821 30.1615C125.452 30.238 126.539 29.4732 126.957 27.8897C127.327 26.4828 127.313 25.0602 126.916 23.6586C126.617 22.5998 125.947 21.8522 124.829 21.6505C124.318 21.5582 123.777 21.5582 123.26 21.6162C122.196 21.7349 121.476 22.3493 121.079 23.3382C120.753 24.1491 120.7 25.0035 120.677 26.0794Z" fill="#102A5E"/>
<path d="M159.917 25.8654C159.933 27.0494 159.792 28.2097 159.37 29.3238C158.711 31.0643 157.505 32.2246 155.694 32.6992C154.229 33.0829 152.755 33.0697 151.308 32.6109C149.609 32.0716 148.475 30.9087 147.912 29.2408C147.155 26.9993 147.156 24.7262 147.905 22.4834C148.634 20.2986 150.492 18.9498 152.841 18.7968C153.956 18.7243 155.06 18.7678 156.124 19.1436C158.07 19.8319 159.167 21.277 159.62 23.227C159.821 24.0867 159.877 24.9793 160 25.8561C159.972 25.8588 159.945 25.8627 159.917 25.8654ZM150.359 25.8601C150.416 26.3941 150.449 26.932 150.533 27.4608C150.813 29.2104 151.812 30.0952 153.559 30.165C155.115 30.227 156.209 29.5018 156.622 28.0554C157.047 26.5681 157.043 25.0598 156.594 23.5738C156.287 22.552 155.619 21.8466 154.545 21.6554C154.025 21.5631 153.471 21.5618 152.943 21.6237C151.894 21.7477 151.183 22.3555 150.794 23.3352C150.472 24.1447 150.389 24.9925 150.359 25.8601Z" fill="#102A5E"/>
<path d="M117.992 15.1876C117.27 15.7308 116.564 16.2622 115.842 16.8054C115.426 16.3492 115.001 15.9563 114.414 15.7994C113.781 15.6293 113.151 15.6359 112.538 15.8666C111.882 16.1132 111.454 16.5997 111.331 17.28C111.234 17.8233 111.249 18.3876 111.212 18.9809C112.982 18.9809 114.691 18.9809 116.43 18.9809C116.43 19.8947 116.43 20.7754 116.43 21.6905C114.716 21.6905 113.008 21.6905 111.244 21.6905C111.244 23.5535 111.244 25.3823 111.244 27.2111C111.244 29.0319 111.244 30.8515 111.244 32.6934C110.238 32.6934 109.268 32.6934 108.26 32.6934C108.26 29.0346 108.26 25.3928 108.26 21.7102C107.53 21.7102 106.834 21.7102 106.114 21.7102C106.114 20.7965 106.114 19.9237 106.114 19.0113C106.809 19.0113 107.506 19.0113 108.256 19.0113C108.256 18.7462 108.26 18.5194 108.255 18.2927C108.233 17.3262 108.337 16.3835 108.784 15.508C109.531 14.0457 110.788 13.3153 112.362 13.07C114.536 12.7312 116.372 13.3746 117.851 15.0109C117.896 15.0557 117.932 15.1085 117.992 15.1876Z" fill="#102A5E"/>
<path d="M104.06 21.8667C103.21 22.2728 102.402 22.6605 101.611 23.0389C101.562 23.0046 101.536 22.9967 101.528 22.9795C100.842 21.5358 99.5529 21.2457 98.0537 21.3973C97.8283 21.4197 97.5975 21.4791 97.3879 21.5661C96.6034 21.8852 96.3832 22.8305 96.9884 23.4278C97.2666 23.7034 97.641 23.9262 98.0115 24.0554C98.9741 24.3903 99.9629 24.6461 100.932 24.9599C101.796 25.2395 102.592 25.6403 103.226 26.3246C104.437 27.6299 104.569 30.7574 102.175 32.1234C100.937 32.8301 99.5924 32.9989 98.2001 32.9369C96.9449 32.8816 95.7714 32.5704 94.7614 31.7832C94.0072 31.1965 93.4877 30.437 93.1133 29.5154C93.9492 29.1937 94.7627 28.8812 95.596 28.5621C95.6224 28.603 95.6461 28.628 95.658 28.6584C96.0588 29.6565 96.8302 30.1641 97.8665 30.2946C98.5996 30.3869 99.3367 30.4067 100.057 30.1944C100.593 30.0362 101.018 29.7448 101.097 29.137C101.18 28.4988 100.962 28.0321 100.318 27.7644C99.603 27.4677 98.8422 27.2805 98.1012 27.0471C97.4433 26.8401 96.7656 26.6793 96.1287 26.4222C94.118 25.6073 93.4653 23.9605 93.7897 22.0052C94.0006 20.7288 94.7311 19.7953 95.9283 19.322C98.0801 18.4702 100.204 18.5533 102.222 19.7505C103.04 20.237 103.62 20.9662 104.06 21.8667Z" fill="#102A5E"/>
<path d="M80.0178 29.5145C80.8709 29.1875 81.6765 28.8789 82.4623 28.5783C82.5124 28.6113 82.5388 28.6205 82.5454 28.6363C83.0174 29.8006 83.9483 30.2884 85.135 30.324C85.7323 30.3425 86.3427 30.2976 86.9295 30.1882C87.5874 30.0669 87.9605 29.6239 88.0212 29.0675C88.0818 28.5058 87.8195 28.0021 87.1892 27.7463C86.4812 27.4602 85.7375 27.2558 85.0005 27.0515C84.1223 26.8075 83.2376 26.5926 82.4386 26.1338C81.3482 25.5075 80.7522 24.5687 80.6415 23.3148C80.4226 20.8241 81.8321 19.3738 83.9206 18.9584C85.7402 18.5972 87.5096 18.7264 89.1274 19.7469C89.9291 20.2532 90.6477 21.1089 90.9391 21.8763C90.1282 22.2653 89.3133 22.6569 88.484 23.0537C88.4484 23.0036 88.4246 22.9799 88.4115 22.9509C87.7667 21.5269 86.3638 21.2316 84.924 21.4043C84.7196 21.4293 84.5113 21.4781 84.3201 21.5546C83.4868 21.8855 83.2745 22.8626 83.9325 23.4757C84.2041 23.7301 84.5588 23.9358 84.9121 24.0558C85.876 24.3854 86.8635 24.6478 87.834 24.9577C88.5802 25.1963 89.2711 25.5444 89.875 26.0626C91.4111 27.3837 91.5073 30.7446 89.0813 32.1225C87.8313 32.8318 86.4772 33.0019 85.073 32.9347C83.8165 32.8753 82.6469 32.5563 81.6409 31.7651C80.8986 31.181 80.387 30.4308 80.0178 29.5145Z" fill="#102A5E"/>
<path d="M133.458 13.25C134.478 13.25 135.439 13.25 136.44 13.25C136.44 13.4095 136.44 13.5493 136.44 13.6891C136.44 18.8392 136.44 23.9893 136.44 29.1394C136.44 29.2488 136.437 29.3596 136.441 29.469C136.465 30.0346 136.707 30.2562 137.278 30.2298C137.464 30.2206 137.65 30.1995 137.854 30.1823C137.866 30.2628 137.887 30.3353 137.887 30.4078C137.89 31.0881 137.883 31.7698 137.893 32.4502C137.895 32.6427 137.845 32.7534 137.643 32.8022C136.784 33.0092 135.923 33.0395 135.078 32.7666C134.05 32.4357 133.684 31.5944 133.539 30.624C133.481 30.2351 133.462 29.8369 133.462 29.4426C133.457 24.1607 133.458 18.8787 133.458 13.5968C133.458 13.4887 133.458 13.3805 133.458 13.25Z" fill="#102A5E"/>
<path d="M141.091 19.0078C142.085 19.0078 143.049 19.0078 144.039 19.0078C144.039 23.5699 144.039 28.1174 144.039 32.69C143.061 32.69 142.091 32.69 141.091 32.69C141.091 28.1398 141.091 23.591 141.091 19.0078Z" fill="#102A5E"/>
<path d="M144.634 15.0809C144.671 16.8121 142.987 17.83 141.468 16.9808C141.245 16.8569 141.037 16.6697 140.884 16.464C140.35 15.7467 140.361 14.4968 140.878 13.7637C141.342 13.1057 142.308 12.8183 143.221 13.0675C144.016 13.2837 144.536 13.9166 144.609 14.7526C144.62 14.862 144.626 14.9714 144.634 15.0809Z" fill="#102A5E"/>
</svg>
